{
  "accessors": [
    {
      "bufferView": 2,
      "componentType": 5126,
      "count": 4811,
      "max": [
        5.4289751052856445,
        5.429101943969727,
        38.736961364746094
      ],
      "min": [
        -5.122940540313721,
        -5.1228132247924805,
        0.0
      ],
      "type": "VEC3"
    },
    {
      "bufferView": 2,
      "byteOffset": 57732,
      "componentType": 5126,
      "count": 4811,
      "max": [
        1.0,
        1.0,
        1.0
      ],
      "min": [
        -1.0,
        -1.0,
        -1.0
      ],
      "type": "VEC3"
    },
    {
      "bufferView": 1,
      "componentType": 5126,
      "count": 4811,
      "max": [
        0.9201295375823975,
        0.9861699938774109
      ],
      "min": [
        0.07391348481178284,
        0.011952178552746773
      ],
      "type": "VEC2"
    },
    {
      "bufferView": 0,
      "componentType": 5125,
      "count": 6084,
      "type": "SCALAR"
    },
    {
      "bufferView": 2,
      "byteOffset": 115464,
      "componentType": 5126,
      "count": 176,
      "max": [
        5.416913986206055,
        5.417040824890137,
        23.36801528930664
      ],
      "min": [
        -5.110878944396973,
        -5.110751628875732,
        21.215038299560547
      ],
      "type": "VEC3"
    },
    {
      "bufferView": 2,
      "byteOffset": 117576,
      "componentType": 5126,
      "count": 176,
      "max": [
        0.9999339580535889,
        0.9999339580535889,
        1.0
      ],
      "min": [
        -0.9999339580535889,
        -0.9999339580535889,
        -1.0
      ],
      "type": "VEC3"
    },
    {
      "bufferView": 1,
      "byteOffset": 38488,
      "componentType": 5126,
      "count": 176,
      "max": [
        0.5280996561050415,
        0.5995091795921326
      ],
      "min": [
        0.49506205320358276,
        0.4960722327232361
      ],
      "type": "VEC2"
    },
    {
      "bufferView": 0,
      "byteOffset": 24336,
      "componentType": 5125,
      "count": 384,
      "type": "SCALAR"
    },
    {
      "bufferView": 2,
      "byteOffset": 119688,
      "componentType": 5126,
      "count": 176,
      "max": [
        5.397634029388428,
        5.397761821746826,
        22.196664810180664
      ],
      "min": [
        -5.091601848602295,
        -5.09147310256958,
        21.112030029296875
      ],
      "type": "VEC3"
    },
    {
      "bufferView": 2,
      "byteOffset": 121800,
      "componentType": 5126,
      "count": 176,
      "max": [
        0.9999768733978271,
        0.9999768733978271,
        0.9918603301048279
      ],
      "min": [
        -0.9999768733978271,
        -0.9999768733978271,
        -0.9995267391204834
      ],
      "type": "VEC3"
    },
    {
      "bufferView": 1,
      "byteOffset": 39896,
      "componentType": 5126,
      "count": 176,
      "max": [
        0.5925418734550476,
        0.6203281879425049
      ],
      "min": [
        0.5665917992591858,
        0.4911004304885864
      ],
      "type": "VEC2"
    },
    {
      "bufferView": 0,
      "byteOffset": 25872,
      "componentType": 5125,
      "count": 384,
      "type": "SCALAR"
    }
  ],
  "asset": {
    "extras": {
      "author": "artparasite (https://sketchfab.com/artparasite)",
      "license": "CC-BY-4.0 (http://creativecommons.org/licenses/by/4.0/)",
      "source": "https://sketchfab.com/3d-models/big-ben-108214d790ae41038ca70d4e7782e0cf",
      "title": "Big Ben"
    },
    "generator": "Sketchfab-12.66.0",
    "version": "2.0"
  },
  "bufferViews": [
    {
      "buffer": 0,
      "byteLength": 27408,
      "name": "floatBufferViews",
      "target": 34963
    },
    {
      "buffer": 0,
      "byteLength": 41304,
      "byteOffset": 27408,
      "byteStride": 8,
      "name": "floatBufferViews",
      "target": 34962
    },
    {
      "buffer": 0,
      "byteLength": 123912,
      "byteOffset": 68712,
      "byteStride": 12,
      "name": "floatBufferViews",
      "target": 34962
    }
  ],
  "buffers": [
    {
      "byteLength": 192624,
      "uri": "scene.bin"
    }
  ],
  "images": [
    {
      "uri": "textures/Scene_-_Root_baseColor.png"
    },
    {
      "uri": "textures/Scene_-_Root_metallicRoughness.png"
    }
  ],
  "materials": [
    {
      "doubleSided": true,
      "name": "Scene_-_Root",
      "occlusionTexture": {
        "index": 1
      },
      "pbrMetallicRoughness": {
        "baseColorTexture": {
          "index": 0
        },
        "metallicRoughnessTexture": {
          "index": 1
        },
        "roughnessFactor": 0.6
      }
    }
  ],
  "meshes": [
    {
      "name": "S_BigBen__0",
      "primitives": [
        {
          "attributes": {
            "NORMAL": 1,
            "POSITION": 0,
            "TEXCOORD_0": 2
          },
          "indices": 3,
          "material": 0,
          "mode": 4
        }
      ]
    },
    {
      "name": "S_H_Arrow__0",
      "primitives": [
        {
          "attributes": {
            "NORMAL": 5,
            "POSITION": 4,
            "TEXCOORD_0": 6
          },
          "indices": 7,
          "material": 0,
          "mode": 4
        }
      ]
    },
    {
      "name": "S_M_Arrow__0",
      "primitives": [
        {
          "attributes": {
            "NORMAL": 9,
            "POSITION": 8,
            "TEXCOORD_0": 10
          },
          "indices": 11,
          "material": 0,
          "mode": 4
        }
      ]
    }
  ],
  "nodes": [
    {
      "children": [
        1
      ],
      "matrix": [
        1.0,
        0.0,
        0.0,
        0.0,
        0.0,
        2.220446049250313e-16,
        -1.0,
        0.0,
        0.0,
        1.0,
        2.220446049250313e-16,
        0.0,
        0.0,
        0.0,
        0.0,
        1.0
      ],
      "name": "Sketchfab_model"
    },
    {
      "children": [
        2
      ],
      "matrix": [
        1.0,
        0.0,
        0.0,
        0.0,
        0.0,
        0.0,
        1.0,
        0.0,
        0.0,
        -1.0,
        0.0,
        0.0,
        0.0,
        0.0,
        0.0,
        1.0
      ],
      "name": "5fee7baa16f840c9badc08e54bdebd09.fbx"
    },
    {
      "children": [
        3,
        5,
        8
      ],
      "name": "RootNode"
    },
    {
      "children": [
        4
      ],
      "matrix": [
        1.0,
        0.0,
        0.0,
        0.0,
        0.0,
        2.220446049250313e-16,
        -1.0,
        0.0,
        0.0,
        1.0,
        2.220446049250313e-16,
        0.0,
        0.0,
        0.0,
        0.8564186096191406,
        1.0
      ],
      "name": "S_BigBen"
    },
    {
      "mesh": 0,
      "name": "S_BigBen__0"
    },
    {
      "children": [
        6
      ],
      "matrix": [
        1.0,
        0.0,
        0.0,
        0.0,
        0.0,
        2.220446049250313e-16,
        -1.0,
        0.0,
        0.0,
        1.0,
        2.220446049250313e-16,
        0.0,
        0.15301752090454102,
        22.291526794433594,
        0.7032740116119385,
        1.0
      ],
      "name": "S_H_Arrow"
    },
    {
      "children": [
        7
      ],
      "matrix": [
        1.0,
        0.0,
        -0.0,
        0.0,
        0.0,
        1.0,
        0.0,
        0.0,
        0.0,
        0.0,
        1.0,
        0.0,
        -0.15301752090454102,
        -0.15314459800720215,
        -22.291526794433594,
        1.0
      ],
      "name": "Object_6"
    },
    {
      "mesh": 1,
      "name": "S_H_Arrow__0"
    },
    {
      "children": [
        9
      ],
      "matrix": [
        1.0,
        0.0,
        0.0,
        0.0,
        0.0,
        2.220446049250313e-16,
        -1.0,
        0.0,
        0.0,
        1.0,
        2.220446049250313e-16,
        0.0,
        0.1530160903930664,
        21.654346466064453,
        0.7032742500305176,
        1.0
      ],
      "name": "S_M_Arrow"
    },
    {
      "children": [
        10
      ],
      "matrix": [
        1.0,
        0.0,
        -0.0,
        0.0,
        0.0,
        1.0,
        0.0,
        0.0,
        0.0,
        0.0,
        1.0,
        0.0,
        -0.1530160903930664,
        -0.15314435958862305,
        -21.654346466064453,
        1.0
      ],
      "name": "Object_9"
    },
    {
      "mesh": 2,
      "name": "S_M_Arrow__0"
    }
  ],
  "samplers": [
    {
      "magFilter": 9729,
      "minFilter": 9987,
      "wrapS": 10497,
      "wrapT": 10497
    }
  ],
  "scene": 0,
  "scenes": [
    {
      "name": "Sketchfab_Scene",
      "nodes": [
        0
      ]
    }
  ],
  "textures": [
    {
      "sampler": 0,
      "source": 0
    },
    {
      "sampler": 0,
      "source": 1
    }
  ]
}
